<svg width="3767" height="1558" xmlns="http://www.w3.org/2000/svg" xmlns:xlink="http://www.w3.org/1999/xlink" xml:space="preserve" overflow="hidden"><defs><clipPath id="clip0"><rect x="316" y="458" width="3767" height="1558"/></clipPath><clipPath id="clip1"><rect x="316" y="458" width="3767" height="1558"/></clipPath><clipPath id="clip2"><rect x="1543" y="579" width="1314" height="1317"/></clipPath><clipPath id="clip3"><rect x="1543" y="579" width="1314" height="1317"/></clipPath><clipPath id="clip4"><rect x="1543" y="579" width="1314" height="1317"/></clipPath><clipPath id="clip5"><rect x="1543" y="579" width="1314" height="1317"/></clipPath><clipPath id="clip6"><rect x="1543" y="579" width="1314" height="1317"/></clipPath><clipPath id="clip7"><rect x="1543" y="579" width="1314" height="1317"/></clipPath><clipPath id="clip8"><rect x="1543" y="579" width="1314" height="1317"/></clipPath><clipPath id="clip9"><rect x="1543" y="579" width="1314" height="1317"/></clipPath><clipPath id="clip10"><rect x="1543" y="579" width="1314" height="1317"/></clipPath></defs><g clip-path="url(#clip0)" transform="translate(-316 -458)"><g clip-path="url(#clip1)"><g clip-path="url(#clip2)"><g clip-path="url(#clip3)"><g clip-path="url(#clip4)"><path d="M-8039.78 644.403-8043 644.412-8056.02 644.515-8062.86 646.186-8067.86 650.756-8069.69 657-8067.86 663.244-8062.86 667.814-8056.02 669.485-8043 669.588-8039.78 669.597Z" fill="#CCCCCC" fill-rule="nonzero" fill-opacity="1" transform="matrix(1 0 0 1.00076 1543 580)"/><path d="M-5168.2 669.016-5162.53 668.999-5150.34 668.894-5144.14 667.299-5139.59 662.946-5137.93 657-5139.59 651.054-5144.14 646.7-5150.34 645.106-5162.53 645.001-5168.2 644.983Z" fill="#CCCCCC" fill-rule="nonzero" fill-opacity="1" transform="matrix(1 0 0 1.00076 1543 580)"/><path d="M-5168.2 644.983-5193.49 398.413-5272.12 149.329-5400.1-81.0519-5572.9-284.128-5784.33-452.191-6026.75-578.705-6291.23-658.568-6303.01-662.013-6325.06-665.495-6356.61-668.878-6567.91-688.343-6792.73-677.695-6821.57-675.512-6840.5-672.831-7106.65-605.184-7121.81-599.442-7376.01-479.347-7600.9-313.582-7786.92-108.311-7926 128.441-8012.02 387.1-8039.78 644.403-8039.78 669.597-8012.02 926.9-7926 1185.56-7786.92 1422.31-7600.9 1627.58-7376.01 1793.35-7121.81 1913.44-7106.65 1919.18-6840.5 1986.83-6821.57 1989.51-6792.73 1991.7-6567.91 2002.34-6356.61 1982.88-6325.06 1979.49-6303.01 1976.01-6291.23 1972.57-6026.75 1892.7-5784.33 1766.19-5572.9 1598.13-5400.1 1395.05-5272.12 1164.67-5193.49 915.586-5168.2 669.016Z" fill="#CCCCCC" fill-rule="nonzero" fill-opacity="1" transform="matrix(1 0 0 1.00076 1543 580)"/><path d="M280.342 53.4579 68.4156 710.401 266.448 1210.57 1031.26 1256.7 1268.94 601.481 1037.92 117.075 280.342 53.4579Z" fill="#00B9FF" fill-rule="nonzero" fill-opacity="1" transform="matrix(1 0 0 1.00076 1543 580)"/><path d="M266.448 1210.57 273.408 1189.81 280.37 1169.05 287.33 1148.28 294.292 1127.52 301.252 1106.75 308.214 1085.99 315.176 1065.22 322.136 1044.46 329.098 1023.7 336.058 1002.93 343.02 982.167 349.982 961.403 356.941 940.64 363.903 919.874 370.863 899.111 377.825 878.345 384.785 857.582 391.747 836.819 398.709 816.053 405.669 795.29 412.631 774.526 419.591 753.761 426.553 732.997 433.513 712.232 440.475 691.468 447.437 670.705 454.396 649.939 461.358 629.176 468.318 608.41 475.28 587.647 482.24 566.884 490.036 543.628" stroke="#000000" stroke-width="6.57" stroke-linecap="butt" stroke-linejoin="round" stroke-miterlimit="4" stroke-opacity="1" fill="none" fill-rule="nonzero" transform="matrix(1 0 0 1.00076 1543 580)"/><path d="M1268.94 601.481 1247.1 599.858 1225.26 598.236 1203.42 596.615 1181.58 594.992 1159.74 593.369 1137.9 591.747 1116.06 590.126 1094.22 588.503 1072.38 586.88 1050.54 585.26 1028.7 583.637 1006.86 582.014 985.022 580.394 963.184 578.771 941.343 577.148 919.504 575.525 897.663 573.905 875.825 572.282 853.984 570.659 832.145 569.039 810.304 567.416 788.466 565.793 766.625 564.172 744.786 562.55 722.945 560.927 701.104 559.304 679.266 557.683 657.425 556.061 635.586 554.438 613.745 552.817 591.907 551.194 570.066 549.572 548.227 547.951 526.386 546.328 504.547 544.705 490.036 543.628 481.423 523.493 472.81 503.358 464.197 483.223 455.581 463.089 446.968 442.954 438.355 422.819 429.741 402.684 421.128 382.549 412.513 362.414 403.899 342.279 395.286 322.145 386.673 302.01 378.057 281.875 369.444 261.74 360.831 241.605 352.218 221.47 343.604 201.335 334.989 181.201 326.376 161.066 317.762 140.931 309.149 120.796 300.536 100.661 291.92 80.5263 283.307 60.3914 280.342 53.4579" stroke="#000000" stroke-width="6.57" stroke-linecap="butt" stroke-linejoin="round" stroke-miterlimit="4" stroke-opacity="1" fill="none" fill-rule="nonzero" transform="matrix(1 0 0 1.00076 1543 580)"/><path d="M280.342 53.4579 273.619 74.3001 266.895 95.1423 260.17 115.985 253.446 136.827 246.723 157.669 240 178.511 233.277 199.356 226.553 220.198 219.83 241.04 213.104 261.882 206.381 282.725 199.658 303.567 192.935 324.409 186.211 345.251 179.488 366.093 172.762 386.936 166.039 407.778 159.316 428.62 152.593 449.462 145.869 470.305 139.146 491.147 132.423 511.989 125.697 532.831 118.974 553.674 112.251 574.516 105.527 595.358 98.804 616.2 92.0807 637.045 85.3552 657.887 78.6319 678.729 71.9086 699.571 68.4156 710.401 76.477 730.763 84.5384 751.124 92.6019 771.487 100.663 791.849 108.725 812.212 116.786 832.572 124.85 852.935 132.911 873.297 140.972 893.66 149.034 914.02 157.097 934.383 165.159 954.746 173.22 975.108 181.282 995.471 189.343 1015.83 197.407 1036.19 205.468 1056.56 213.529 1076.92 221.591 1097.28 229.654 1117.64 237.716 1138 245.777 1158.37 253.838 1178.73 261.902 1199.09 266.448 1210.57 288.307 1211.89 310.167 1213.21 332.028 1214.53 353.889 1215.85 375.749 1217.16 397.61 1218.48 419.47 1219.8 441.331 1221.12 463.189 1222.44 485.05 1223.76 506.91 1225.07 528.771 1226.39 550.632 1227.71 572.492 1229.03 594.353 1230.35 616.211 1231.67 638.072 1232.99 659.932 1234.3 681.793 1235.62 703.653 1236.94 725.514 1238.26 747.375 1239.58 769.235 1240.9 791.094 1242.21 812.954 1243.53 834.815 1244.85 856.675 1246.17 878.536 1247.49 900.396 1248.81 922.257 1250.12 944.115 1251.44 965.976 1252.76 987.836 1254.08 1009.7 1255.4 1031.26 1256.7 1038.73 1236.11 1046.2 1215.52 1053.67 1194.94 1061.13 1174.35 1068.6 1153.76 1076.07 1133.17 1083.54 1112.59 1091.01 1092 1098.47 1071.41 1105.94 1050.83 1113.41 1030.24 1120.88 1009.65 1128.34 989.063 1135.81 968.475 1143.28 947.889 1150.75 927.301 1158.22 906.712 1165.69 886.126 1173.15 865.538 1180.62 844.952 1188.09 824.364 1195.56 803.776 1203.03 783.19 1210.49 762.602 1217.96 742.016 1225.43 721.427 1232.9 700.839 1240.37 680.253 1247.84 659.665 1255.3 639.077 1262.77 618.491 1268.94 601.481 1259.51 581.714 1250.09 561.947 1240.66 542.178 1231.23 522.411 1221.81 502.644 1212.38 482.877 1202.95 463.11 1193.52 443.344 1184.1 423.577 1174.67 403.81 1165.24 384.043 1155.82 364.276 1146.39 344.509 1136.96 324.742 1127.53 304.973 1118.11 285.206 1108.68 265.439 1099.25 245.672 1089.82 225.905 1080.4 206.138 1070.97 186.371 1061.54 166.604 1052.12 146.837 1042.69 127.07 1037.92 117.075 1016.1 115.242 994.277 113.411 972.454 111.578 950.631 109.745 928.807 107.912 906.984 106.079 885.161 104.248 863.337 102.415 841.514 100.582 819.693 98.7493 797.869 96.9162 776.046 95.0854 754.223 93.2524 732.399 91.4193 710.576 89.5863 688.753 87.7533 666.929 85.9224 645.106 84.0894 623.283 82.2564 601.459 80.4234 579.636 78.5903 557.813 76.7595 535.989 74.9265 514.168 73.0934 492.345 71.2604 470.521 69.4274 448.698 67.5965 426.875 65.7635 405.051 63.9305 383.228 62.0974 361.405 60.2644 339.581 58.4336 317.758 56.6005 295.935 54.7675 280.342 53.4579" stroke="#000000" stroke-width="6.57" stroke-linecap="butt" stroke-linejoin="round" stroke-miterlimit="4" stroke-opacity="1" fill="none" fill-rule="nonzero" transform="matrix(1 0 0 1.00076 1543 580)"/></g></g></g><g clip-path="url(#clip5)"><g clip-path="url(#clip6)"><g clip-path="url(#clip7)"><path d="M-8039.78 644.403-8043 644.412-8056.02 644.515-8062.86 646.186-8067.86 650.756-8069.69 657-8067.86 663.244-8062.86 667.814-8056.02 669.485-8043 669.588-8039.78 669.597Z" fill="#CCCCCC" fill-rule="nonzero" fill-opacity="1" transform="matrix(1 0 0 1.00076 1543 580)"/><path d="M-5168.2 669.016-5162.53 668.999-5150.34 668.894-5144.14 667.299-5139.59 662.946-5137.93 657-5139.59 651.054-5144.14 646.7-5150.34 645.106-5162.53 645.001-5168.2 644.983Z" fill="#CCCCCC" fill-rule="nonzero" fill-opacity="1" transform="matrix(1 0 0 1.00076 1543 580)"/><path d="M-5168.2 644.983-5193.49 398.413-5272.12 149.329-5400.1-81.0519-5572.9-284.128-5784.33-452.191-6026.75-578.705-6291.23-658.568-6303.01-662.013-6325.06-665.495-6356.61-668.878-6567.91-688.343-6792.73-677.695-6821.57-675.512-6840.5-672.831-7106.65-605.184-7121.81-599.442-7376.01-479.347-7600.9-313.582-7786.92-108.311-7926 128.441-8012.02 387.1-8039.78 644.403-8039.78 669.597-8012.02 926.9-7926 1185.56-7786.92 1422.31-7600.9 1627.58-7376.01 1793.35-7121.81 1913.44-7106.65 1919.18-6840.5 1986.83-6821.57 1989.51-6792.73 1991.7-6567.91 2002.34-6356.61 1982.88-6325.06 1979.49-6303.01 1976.01-6291.23 1972.57-6026.75 1892.7-5784.33 1766.19-5572.9 1598.13-5400.1 1395.05-5272.12 1164.67-5193.49 915.586-5168.2 669.016Z" fill="#CCCCCC" fill-rule="nonzero" fill-opacity="1" transform="matrix(1 0 0 1.00076 1543 580)"/><path d="M708.673 749.418 630.615 975.535 608.991 974.116 585.28 1042.96 595.082 1066.28 616.693 1067.66 695.688 1072.69 879.758 1084.41 904.071 1015.97 893.851 992.803 727.349 981.882 798.397 778.1 788.214 755.016 708.673 749.418Z" fill="#FFFFFF" fill-rule="nonzero" fill-opacity="1" transform="matrix(1 0 0 1.00076 1543 580)"/><path d="M254.76 407.016 185.55 619.564 175.739 618.854 153.416 687.482 158.952 701.251 179.313 751.895 227.539 871.856 262.826 874.228 285.664 805.278 236.91 685.628 310.987 459.878 290 409.718 254.76 407.016Z" fill="#FFFFFF" fill-rule="nonzero" fill-opacity="1" transform="matrix(1 0 0 1.00076 1543 580)"/><path d="M868.385 404.515 807.376 270.923 875.763 276.422 886.277 245.976 863.015 195.698 769.52 188.027 691.306 181.61 580.109 172.487 569.886 203.085 592.272 253.63 703.702 262.588 778.632 429.091 857.753 435.19 868.385 404.515Z" fill="#FFFFFF" fill-rule="nonzero" fill-opacity="1" transform="matrix(1 0 0 1.00076 1543 580)"/><path d="M807.376 270.923 829.206 272.679 851.036 274.433 872.866 276.187 875.763 276.422 882.914 255.722 886.277 245.976 877.082 226.1 867.886 206.223 863.015 195.698 841.188 193.907 819.362 192.116 797.534 190.326 775.709 188.535 769.52 188.027 747.692 186.235 725.867 184.446 704.039 182.655 691.306 181.61 669.481 179.819 647.653 178.029 625.827 176.238 604 174.447 582.174 172.657 580.109 172.487 573.169 193.259 569.886 203.085 578.756 223.108 587.623 243.134 592.272 253.63 614.102 255.385 635.932 257.141 657.762 258.895 679.59 260.649 701.42 262.406 703.702 262.588 712.689 282.56 721.677 302.531 730.665 322.502 739.65 342.472 748.638 362.443 757.626 382.413 766.614 402.384 775.602 422.355 778.632 429.091 800.469 430.775 822.303 432.457 844.14 434.141 857.753 435.19 864.925 414.497 868.385 404.515 859.288 384.592 850.191 364.672 841.093 344.752 831.994 324.829 822.897 304.909 813.799 284.989 807.376 270.923 798.279 251.002 792.513 238.377" stroke="#000000" stroke-width="6.57" stroke-linecap="butt" stroke-linejoin="round" stroke-miterlimit="4" stroke-opacity="1" fill="none" fill-rule="nonzero" transform="matrix(1 0 0 1.00076 1543 580)"/><path d="M868.385 404.515 846.551 402.818 824.717 401.12 802.882 399.423 789.199 398.359" stroke="#000000" stroke-width="6.57" stroke-linecap="butt" stroke-linejoin="round" stroke-miterlimit="4" stroke-opacity="1" fill="none" fill-rule="nonzero" transform="matrix(1 0 0 1.00076 1543 580)"/><path d="M714.073 232.02 723.088 251.979 732.102 271.937 741.116 291.896 750.13 311.854 759.146 331.813 768.16 351.773 777.174 371.731 786.188 391.69 789.199 398.359 782.08 419.07 778.632 429.091" stroke="#000000" stroke-width="6.57" stroke-linecap="butt" stroke-linejoin="round" stroke-miterlimit="4" stroke-opacity="1" fill="none" fill-rule="nonzero" transform="matrix(1 0 0 1.00076 1543 580)"/><path d="M602.552 222.981 624.38 224.751 646.21 226.52 668.037 228.288 689.865 230.057 711.695 231.827 714.073 232.02 707.037 252.759 703.702 262.588" stroke="#000000" stroke-width="6.57" stroke-linecap="butt" stroke-linejoin="round" stroke-miterlimit="4" stroke-opacity="1" fill="none" fill-rule="nonzero" transform="matrix(1 0 0 1.00076 1543 580)"/><path d="M886.277 245.976 864.45 244.207 842.622 242.437 820.792 240.668 798.964 238.898 792.513 238.377" stroke="#000000" stroke-width="6.57" stroke-linecap="butt" stroke-linejoin="round" stroke-miterlimit="4" stroke-opacity="1" fill="none" fill-rule="nonzero" transform="matrix(1 0 0 1.00076 1543 580)"/><path d="M580.109 172.487 589.005 192.499 597.898 212.511 602.552 222.981 595.588 243.745 592.272 253.63" stroke="#000000" stroke-width="6.57" stroke-linecap="butt" stroke-linejoin="round" stroke-miterlimit="4" stroke-opacity="1" fill="none" fill-rule="nonzero" transform="matrix(1 0 0 1.00076 1543 580)"/><path d="M185.55 619.564 175.739 618.854 168.965 639.681 162.191 660.506 155.418 681.333 153.416 687.482 158.952 701.251 167.121 721.57 175.29 741.889 179.313 751.895 187.481 772.216 195.65 792.535 203.819 812.853 211.988 833.172 220.156 853.493 227.539 871.856 249.391 873.326 262.826 874.228 269.712 853.438 276.597 832.649 283.482 811.859 285.664 805.278 277.398 784.997 269.136 764.715 260.871 744.436 252.608 724.154 244.343 703.872 236.91 685.628 243.736 664.82 250.564 644.011 257.393 623.204 264.221 602.394 271.05 581.585 277.878 560.778 284.704 539.969 291.533 519.161 298.361 498.352 305.19 477.545 310.987 459.878 302.533 439.675 294.082 419.473 290 409.718 268.163 408.043 254.76 407.016 247.98 427.838 241.2 448.663 234.42 469.486 227.64 490.31 220.857 511.135 214.077 531.957 207.297 552.782 200.516 573.605 193.736 594.429 186.954 615.254 185.55 619.564 181.308 632.594" stroke="#000000" stroke-width="6.57" stroke-linecap="butt" stroke-linejoin="round" stroke-miterlimit="4" stroke-opacity="1" fill="none" fill-rule="nonzero" transform="matrix(1 0 0 1.00076 1543 580)"/><path d="M254.76 407.016 263.174 427.234 271.588 447.454 275.646 457.202" stroke="#000000" stroke-width="6.57" stroke-linecap="butt" stroke-linejoin="round" stroke-miterlimit="4" stroke-opacity="1" fill="none" fill-rule="nonzero" transform="matrix(1 0 0 1.00076 1543 580)"/><path d="M201.789 683.135 208.595 662.319 215.4 641.503 222.204 620.688 229.008 599.872 235.813 579.056 242.619 558.24 249.423 537.424 256.228 516.608 263.032 495.792 269.836 474.974 275.646 457.202 297.483 458.855 310.987 459.878" stroke="#000000" stroke-width="6.57" stroke-linecap="butt" stroke-linejoin="round" stroke-miterlimit="4" stroke-opacity="1" fill="none" fill-rule="nonzero" transform="matrix(1 0 0 1.00076 1543 580)"/><path d="M250.306 802.852 242.083 782.555 233.857 762.258 225.631 741.961 217.406 721.666 209.18 701.369 201.789 683.135 223.634 684.686 236.91 685.628" stroke="#000000" stroke-width="6.57" stroke-linecap="butt" stroke-linejoin="round" stroke-miterlimit="4" stroke-opacity="1" fill="none" fill-rule="nonzero" transform="matrix(1 0 0 1.00076 1543 580)"/><path d="M175.739 618.854 181.308 632.594" stroke="#000000" stroke-width="6.57" stroke-linecap="butt" stroke-linejoin="round" stroke-miterlimit="4" stroke-opacity="1" fill="none" fill-rule="nonzero" transform="matrix(1 0 0 1.00076 1543 580)"/><path d="M227.539 871.856 234.4 851.06 241.263 830.264 248.125 809.465 250.306 802.852 272.156 804.35 285.664 805.278" stroke="#000000" stroke-width="6.57" stroke-linecap="butt" stroke-linejoin="round" stroke-miterlimit="4" stroke-opacity="1" fill="none" fill-rule="nonzero" transform="matrix(1 0 0 1.00076 1543 580)"/><path d="M630.615 975.535 639.182 995.69 640.505 998.804" stroke="#000000" stroke-width="6.57" stroke-linecap="butt" stroke-linejoin="round" stroke-miterlimit="4" stroke-opacity="1" fill="none" fill-rule="nonzero" transform="matrix(1 0 0 1.00076 1543 580)"/><path d="M618.852 997.394 640.505 998.804 647.662 978.106 654.821 957.409 661.978 936.711 669.135 916.016 676.294 895.318 683.451 874.62 690.608 853.922 697.767 833.225 704.924 812.529 712.083 791.832 718.756 772.533" stroke="#000000" stroke-width="6.57" stroke-linecap="butt" stroke-linejoin="round" stroke-miterlimit="4" stroke-opacity="1" fill="none" fill-rule="nonzero" transform="matrix(1 0 0 1.00076 1543 580)"/><path d="M798.397 778.1 776.552 776.574 754.705 775.045 732.857 773.519 718.756 772.533 710 752.46 708.673 749.418" stroke="#000000" stroke-width="6.57" stroke-linecap="butt" stroke-linejoin="round" stroke-miterlimit="4" stroke-opacity="1" fill="none" fill-rule="nonzero" transform="matrix(1 0 0 1.00076 1543 580)"/><path d="M719.651 1003.96 726.861 983.279 727.349 981.882 734.559 961.202 741.768 940.524 748.978 919.844 756.187 899.163 763.399 878.485 770.608 857.805 777.818 837.127 785.027 816.447 792.239 795.769 798.397 778.1 789.558 758.064 788.214 755.016 766.366 753.478 744.521 751.941 722.676 750.403 708.673 749.418 701.527 770.12 694.381 790.82 687.233 811.522 680.087 832.224 672.941 852.924 665.795 873.626 658.649 894.328 651.503 915.028 644.357 935.73 637.211 956.43 630.615 975.535 608.991 974.116 601.86 994.823 594.727 1015.53 587.597 1036.24 585.28 1042.96 593.766 1063.15 595.082 1066.28 616.693 1067.66 638.547 1069.05 660.403 1070.44 682.259 1071.83 695.688 1072.69 717.542 1074.08 739.399 1075.47 761.255 1076.86 783.111 1078.26 804.965 1079.65 826.821 1081.04 848.677 1082.43 870.534 1083.82 879.758 1084.41 887.09 1063.77 894.42 1043.14 901.752 1022.5 904.071 1015.97 895.23 995.933 893.851 992.803 871.997 991.369 850.143 989.937 828.291 988.502 806.437 987.07 784.585 985.636 762.731 984.201 740.879 982.769 727.349 981.882" stroke="#000000" stroke-width="6.57" stroke-linecap="butt" stroke-linejoin="round" stroke-miterlimit="4" stroke-opacity="1" fill="none" fill-rule="nonzero" transform="matrix(1 0 0 1.00076 1543 580)"/><path d="M608.991 974.116 617.534 994.282 618.852 997.394 611.708 1018.1 604.565 1038.8 597.423 1059.5 595.082 1066.28" stroke="#000000" stroke-width="6.57" stroke-linecap="butt" stroke-linejoin="round" stroke-miterlimit="4" stroke-opacity="1" fill="none" fill-rule="nonzero" transform="matrix(1 0 0 1.00076 1543 580)"/><path d="M904.071 1015.97 882.217 1014.55 860.365 1013.12 838.511 1011.7 816.657 1010.28 794.803 1008.85 772.949 1007.43 751.095 1006.01 729.241 1004.58 719.651 1003.96" stroke="#000000" stroke-width="6.57" stroke-linecap="butt" stroke-linejoin="round" stroke-miterlimit="4" stroke-opacity="1" fill="none" fill-rule="nonzero" transform="matrix(1 0 0 1.00076 1543 580)"/></g></g></g><g clip-path="url(#clip8)"><g clip-path="url(#clip9)"><g clip-path="url(#clip10)"><path d="M1144.9 1087.65 1145.52 1088.52 1202.24 1066.29 1144.51 919.128 1265.55 916.804 986.562 599.508 986.271 599.67 985.911 1026.83 986.203 1027.57 1087.54 941.426 1144.9 1087.65Z" fill="#000000" fill-rule="nonzero" fill-opacity="1" transform="matrix(1 0 0 1.00076 1543 580)"/><path d="M-8039.78 644.403-8043 644.412-8056.02 644.515-8062.86 646.186-8067.86 650.756-8069.69 657-8067.86 663.244-8062.86 667.814-8056.02 669.485-8043 669.588-8039.78 669.597Z" fill="#CCCCCC" fill-rule="nonzero" fill-opacity="1" transform="matrix(1 0 0 1.00076 1543 580)"/><path d="M-5168.2 669.016-5162.53 668.999-5150.34 668.894-5144.14 667.299-5139.59 662.946-5137.93 657-5139.59 651.054-5144.14 646.7-5150.34 645.106-5162.53 645.001-5168.2 644.983Z" fill="#CCCCCC" fill-rule="nonzero" fill-opacity="1" transform="matrix(1 0 0 1.00076 1543 580)"/><path d="M-5168.2 644.983-5193.49 398.413-5272.12 149.329-5400.1-81.0519-5572.9-284.128-5784.33-452.191-6026.75-578.705-6291.23-658.568-6303.01-662.013-6325.06-665.495-6356.61-668.878-6567.91-688.343-6792.73-677.695-6821.57-675.512-6840.5-672.831-7106.65-605.184-7121.81-599.442-7376.01-479.347-7600.9-313.582-7786.92-108.311-7926 128.441-8012.02 387.1-8039.78 644.403-8039.78 669.597-8012.02 926.9-7926 1185.56-7786.92 1422.31-7600.9 1627.58-7376.01 1793.35-7121.81 1913.44-7106.65 1919.18-6840.5 1986.83-6821.57 1989.51-6792.73 1991.7-6567.91 2002.34-6356.61 1982.88-6325.06 1979.49-6303.01 1976.01-6291.23 1972.57-6026.75 1892.7-5784.33 1766.19-5572.9 1598.13-5400.1 1395.05-5272.12 1164.67-5193.49 915.586-5168.2 669.016Z" fill="#CCCCCC" fill-rule="nonzero" fill-opacity="1" transform="matrix(1 0 0 1.00076 1543 580)"/><path d="M990.907 610.942 990.907 610.944 990.907 611.424 990.907 611.426 990.889 633.326 990.87 655.226 990.852 677.126 990.835 699.026 990.815 720.926 990.797 742.826 990.778 764.726 990.76 786.626 990.743 808.526 990.723 830.426 990.705 852.326 990.686 874.226 990.668 896.126 990.651 918.026 990.631 939.926 990.613 961.826 990.594 983.726 990.576 1005.63 990.57 1014.22 990.567 1015.18 1007.26 1001 1023.94 986.814 1040.63 972.631 1057.31 958.447 1074 944.264 1088.06 932.309 1088.29 932.121" stroke="#FFFFFF" stroke-width="6.57" stroke-linecap="butt" stroke-linejoin="round" stroke-miterlimit="4" stroke-opacity="1" fill="none" fill-rule="nonzero" transform="matrix(1 0 0 1.00076 1543 580)"/><path d="M1196.17 1061.3 1196.17 1061.3 1188.17 1040.91 1180.18 1020.52 1172.18 1000.13 1164.18 979.747 1156.18 959.36 1148.19 938.971 1140.19 918.584 1137.87 912.682 1159.77 912.262 1181.67 911.841 1203.56 911.421 1225.46 911 1247.35 910.582 1254.25 910.449 1239.79 894.002 1225.33 877.555 1210.87 861.108 1196.41 844.661 1181.94 828.216 1167.48 811.769 1153.02 795.322 1138.56 778.876 1124.1 762.429 1109.64 745.982 1095.18 729.535 1080.72 713.088 1066.26 696.641 1051.8 680.194 1037.34 663.747 1022.88 647.303 1008.42 630.856 993.955 614.409 990.911 610.946 990.909 610.944" stroke="#FFFFFF" stroke-width="6.57" stroke-linecap="butt" stroke-linejoin="round" stroke-miterlimit="4" stroke-opacity="1" fill="none" fill-rule="nonzero" transform="matrix(1 0 0 1.00076 1543 580)"/><path d="M990.907 610.944 990.907 611.422 990.889 633.322 990.87 655.222 990.852 677.122 990.835 699.022 990.815 720.922 990.797 742.822 990.778 764.722 990.76 786.622 990.743 808.522 990.723 830.422 990.705 852.322 990.686 874.221 990.668 896.122 990.651 918.022 990.631 939.922 990.613 961.822 990.594 983.721 990.576 1005.62 990.57 1014.22 990.567 1015.18" stroke="#FFFFFF" stroke-width="6.57" stroke-linecap="butt" stroke-linejoin="round" stroke-miterlimit="4" stroke-opacity="1" fill="none" fill-rule="nonzero" transform="matrix(1 0 0 1.00076 1543 580)"/><path d="M1146.58 1080.73 1166.97 1072.74 1187.36 1064.75 1196.17 1061.3" stroke="#FFFFFF" stroke-width="6.57" stroke-linecap="butt" stroke-linejoin="round" stroke-miterlimit="4" stroke-opacity="1" fill="none" fill-rule="nonzero" transform="matrix(1 0 0 1.00076 1543 580)"/><path d="M1088.29 932.121 1096.28 952.51 1104.28 972.896 1112.27 993.285 1120.27 1013.67 1128.27 1034.06 1136.27 1054.45 1144.26 1074.84 1146.58 1080.73 1166.97 1072.74 1187.36 1064.75 1196.17 1061.3" stroke="#FFFFFF" stroke-width="6.57" stroke-linecap="butt" stroke-linejoin="round" stroke-miterlimit="4" stroke-opacity="1" fill="none" fill-rule="nonzero" transform="matrix(1 0 0 1.00076 1543 580)"/><path d="M1087.54 941.426 1095.54 961.815 1103.53 982.202 1111.53 1002.59 1119.53 1022.98 1127.53 1043.37 1135.52 1063.75 1143.52 1084.14 1144.9 1087.65 1145.52 1088.52 1165.91 1080.53 1186.3 1072.53 1202.24 1066.29 1194.24 1045.9 1186.24 1025.52 1178.24 1005.13 1170.25 984.74 1162.25 964.353 1154.25 943.966 1146.25 923.578 1144.51 919.128 1166.4 918.707 1188.3 918.286 1210.2 917.866 1232.09 917.448 1253.99 917.027 1265.55 916.804 1251.09 900.357 1236.62 883.912 1222.16 867.465 1207.7 851.018 1193.24 834.572 1178.78 818.125 1164.32 801.678 1149.86 785.231 1135.4 768.784 1120.94 752.337 1106.48 735.89 1092.02 719.446 1077.56 702.999 1063.1 686.552 1048.64 670.105 1034.17 653.658 1019.71 637.211 1005.25 620.764 990.791 604.317 986.562 599.508 986.271 599.67 986.251 621.57 986.233 643.47 986.216 665.37 986.196 687.27 986.179 709.17 986.159 731.07 986.141 752.97 986.124 774.87 986.104 796.77 986.087 818.67 986.067 840.57 986.049 862.47 986.032 884.37 986.012 906.27 985.995 928.17 985.975 950.07 985.958 971.97 985.94 993.87 985.92 1015.77 985.911 1026.83 986.203 1027.57 1002.89 1013.38 1019.58 999.198 1036.26 985.016 1052.95 970.831 1069.64 956.647 1086.32 942.464 1087.54 941.426 1087.76 941.244" stroke="#FFFFFF" stroke-width="6.57" stroke-linecap="butt" stroke-linejoin="round" stroke-miterlimit="4" stroke-opacity="1" fill="none" fill-rule="nonzero" transform="matrix(1 0 0 1.00076 1543 580)"/><path d="M1087.76 941.244 1095.75 961.633 1103.75 982.02 1111.75 1002.41 1119.74 1022.8 1127.74 1043.18 1135.74 1063.57 1143.73 1083.96 1145.52 1088.52" stroke="#FFFFFF" stroke-width="6.57" stroke-linecap="butt" stroke-linejoin="round" stroke-miterlimit="4" stroke-opacity="1" fill="none" fill-rule="nonzero" transform="matrix(1 0 0 1.00076 1543 580)"/><path d="M986.562 599.508 986.544 621.408 986.525 643.308 986.507 665.208 986.49 687.108 986.47 709.008 986.452 730.908 986.433 752.808 986.415 774.708 986.398 796.608 986.378 818.508 986.36 840.408 986.341 862.308 986.323 884.208 986.306 906.108 986.286 928.008 986.269 949.908 986.249 971.808 986.231 993.708 986.214 1015.61 986.203 1027.57" stroke="#FFFFFF" stroke-width="6.57" stroke-linecap="butt" stroke-linejoin="round" stroke-miterlimit="4" stroke-opacity="1" fill="none" fill-rule="nonzero" transform="matrix(1 0 0 1.00076 1543 580)"/><path d="M990.907 610.942 1005.37 627.389 1019.83 643.836 1034.29 660.283 1048.75 676.73 1063.21 693.177 1077.67 709.623 1092.13 726.07 1106.59 742.517 1121.05 758.964 1135.52 775.411 1149.98 791.858 1164.44 808.303 1178.9 824.749 1193.36 841.196 1207.82 857.643 1222.28 874.09 1236.74 890.537 1251.2 906.984 1254.25 910.449 1232.35 910.869 1210.46 911.289 1188.56 911.71 1166.67 912.13 1144.77 912.551 1137.87 912.682 1145.87 933.071 1153.87 953.458 1161.86 973.845 1169.86 994.234 1177.86 1014.62 1185.86 1035.01 1193.85 1055.4 1196.17 1061.3" stroke="#FFFFFF" stroke-width="6.57" stroke-linecap="butt" stroke-linejoin="round" stroke-miterlimit="4" stroke-opacity="1" fill="none" fill-rule="nonzero" transform="matrix(1 0 0 1.00076 1543 580)"/></g></g></g></g></g></svg>